# xmcd
#
# Track frame offsets:
#	150
#	16502
#	32190
#	49040
#	63092
#	82490
#	106667
#	122072
#	134727
#	150345
#	164217
#	187535
#	210597
#	222720
#	235662
#	255695
#
# Disc length: 3603 seconds
#
# Revision: 6
# Processed by: cddbd v1.5.2PL0 Copyright (c) Steve Scherf et al.
# Submitted via: audiograbber 1.83.01
#
DISCID=d90e1110
DTITLE=Various Artist - New Country - December 1994
DYEAR=1994
DGENRE=Country
TTITLE0=Tracy Lawrence - I See It Now
TTITLE1=George Ducas - Hello Cruel World
TTITLE2=Radney Foster - The Running Kind
TTITLE3=Elvis Costello - A Good Year For The Roses
TTITLE4=Alison Krauss - When You Say Nothing At All
TTITLE5=Jerry Douglas - Birdland
TTITLE6=David Gates - Love Is Always Seventeen
TTITLE7=J.D. Crowe and The New South - Waiting For You
TTITLE8=Rhett Akins - What They're Talkin' About
TTITLE9=Archer/Park - We Got A Lot In Common
TTITLE10=Blue Rodeo - Bad Timing
TTITLE11=Jed Zeppelin (featuring Diamond Rio, Lee Roy Parnell and Steve Wariner
TTITLE11=) - Workin' Man's Blues
TTITLE12=Mac McAnally - Down The Road
TTITLE13=Alison Krauss and The Cox Family - Walk Over God's Heaven
TTITLE14=David Grisman and Jerry Garcia - The Teddy Bear's Picnic
TTITLE15=The Volebeats - The First Time Next Time
EXTD=
EXTT0=
EXTT1=
EXTT2=
EXTT3=
EXTT4=
EXTT5=
EXTT6=
EXTT7=
EXTT8=
EXTT9=
EXTT10=
EXTT11=
EXTT12=
EXTT13=
EXTT14=
EXTT15=
PLAYORDER=
